<svg xmlns="http://www.w3.org/2000/svg" version="1.1" xmlns:xlink="http://www.w3.org/1999/xlink" xmlns:svgjs="http://svgjs.dev/svgjs" width="1439" height="560" preserveAspectRatio="none" viewBox="0 0 1439 560"><g clip-path="url(&quot;#SvgjsClipPath3603&quot;)" fill="none"><rect width="1439" height="560" x="0" y="0" fill="url(&quot;#SvgjsLinearGradient3604&quot;)"></rect><path d="M610.65 379.38C637.73 382.79 667.85 377.12 686.13 356.86 703.91 337.15 701.69 307.79 699.07 281.38 696.77 258.16 688.79 236.24 672.49 219.54 655.98 202.63 634.21 192.57 610.65 190.79 584.96 188.85 557.85 192.2 538.68 209.41 518.68 227.37 507.02 254.64 509.76 281.38 512.31 306.29 534.11 322.51 552.07 339.96 569.62 357.01 586.37 376.32 610.65 379.38" fill="#54c076" stroke="none"></path><path d="M591.65 363.38C618.73 366.79 648.85 361.12 667.13 340.86 684.91 321.15 682.69 291.79 680.07 265.38 677.77 242.16 669.79 220.24 653.49 203.54 636.98 186.63 615.21 176.57 591.65 174.79 565.96 172.85 538.85 176.2 519.68 193.41 499.68 211.37 488.02 238.64 490.76 265.38 493.31 290.29 515.11 306.51 533.07 323.96 550.62 341.01 567.37 360.32 591.65 363.38" fill="none" stroke-width="4" stroke="#348d50"></path><path d="M135.67 340.58C157.37 342.44 178.09 331.55 193.66 316.32 209.41 300.91 221.9 280.25 219.74 258.33 217.7 237.65 199.35 223.9 183.26 210.74 169.29 199.31 153.61 191.52 135.67 189.57 115.02 187.33 91.45 184.74 76.51 199.17 61.47 213.71 62.52 237.51 64.51 258.33 66.28 276.85 74.68 293.08 86.85 307.15 100.26 322.65 115.25 338.83 135.67 340.58" fill="#488fdb" stroke="none"></path><path d="M115.67 359.58C137.37 361.44 158.09 350.55 173.66 335.32 189.41 319.91 201.9 299.25 199.74 277.33 197.7 256.65 179.35 242.9 163.26 229.74 149.29 218.31 133.61 210.52 115.67 208.57 95.02 206.33 71.45 203.74 56.51 218.17 41.47 232.71 42.52 256.51 44.51 277.33 46.28 295.85 54.68 312.08 66.85 326.15 80.26 341.65 95.25 357.83 115.67 359.58" fill="none" stroke-width="4" stroke="#2164aa"></path><path d="M388.79 622.06C407.54 621.92 426.22 617.48 440.09 604.86 454.6 591.66 463.94 573.18 464.07 553.56 464.2 533.82 455.49 514.73 440.76 501.59 426.76 489.1 407.54 487.03 388.79 486.39 369.12 485.72 348.16 485.19 333.18 497.95 317.28 511.5 309.25 532.68 309.94 553.56 310.61 573.84 321.4 592.32 336.72 605.63 351 618.04 369.87 622.2 388.79 622.06" fill="#ff9500" stroke="none"></path><path d="M373.79 605.06C392.54 604.92 411.22 600.48 425.09 587.86 439.6 574.66 448.94 556.18 449.07 536.56 449.2 516.82 440.49 497.73 425.76 484.59 411.76 472.1 392.54 470.03 373.79 469.39 354.12 468.72 333.16 468.19 318.18 480.95 302.28 494.5 294.25 515.68 294.94 536.56 295.61 556.84 306.4 575.32 321.72 588.63 336 601.04 354.87 605.2 373.79 605.06" fill="none" stroke-width="4" stroke="#b36800"></path><path d="M977.83 458.74C1003.84 456.16 1024.24 439.2 1043.33 421.35 1063.38 402.6 1087.95 383.3 1087.87 355.85 1087.79 328.44 1064.08 308.18 1042.95 290.73 1024.24 275.28 1002.07 266.26 977.83 264.97 951.97 263.6 924.06 265.46 905.41 283.43 886.53 301.62 884.79 329.66 883.5 355.85 882.11 383.97 878.86 415.05 897.88 435.8 917.36 457.04 949.15 461.59 977.83 458.74" fill="#54c076" stroke="none"></path><path d="M958.83 476.74C984.84 474.16 1005.24 457.2 1024.33 439.35 1044.38 420.6 1068.95 401.3 1068.87 373.85 1068.79 346.44 1045.08 326.18 1023.95 308.73 1005.24 293.28 983.07 284.26 958.83 282.97 932.97 281.6 905.06 283.46 886.41 301.43 867.53 319.62 865.79 347.66 864.5 373.85 863.11 401.97 859.86 433.05 878.88 453.8 898.36 475.04 930.15 479.59 958.83 476.74" fill="none" stroke-width="4" stroke="#348d50"></path><path d="M1378.74 444.54C1404.15 444.07 1428.64 433.41 1445.63 414.52 1461.83 396.51 1464.95 371.83 1465.92 347.63 1466.95 322.02 1469.12 293.49 1451.22 275.15 1433.21 256.7 1404.52 257.96 1378.74 258.34 1353.49 258.72 1325.19 258.43 1308.38 277.27 1292.01 295.62 1298.89 323.04 1299.06 347.63 1299.23 371.94 1293.9 398.25 1309.34 417.03 1325.77 437.01 1352.87 445.02 1378.74 444.54" fill="#ff9500" stroke="none"></path><path d="M1361.74 462.54C1387.15 462.07 1411.64 451.41 1428.63 432.52 1444.83 414.51 1447.95 389.83 1448.92 365.63 1449.95 340.02 1452.12 311.49 1434.22 293.15 1416.21 274.7 1387.52 275.96 1361.74 276.34 1336.49 276.72 1308.19 276.43 1291.38 295.27 1275.01 313.62 1281.89 341.04 1282.06 365.63 1282.23 389.94 1276.9 416.25 1292.34 435.03 1308.77 455.01 1335.87 463.02 1361.74 462.54" fill="none" stroke-width="4" stroke="#b36800"></path><path d="M604.23 139.48C629.37 137.96 645.1 113.79 661.42 94.6 675.88 77.6 688.5 59.58 691.05 37.41 693.96 12.09 693.67-16.01 676.29-34.65 658.55-53.68 630.25-55.96 604.23-55.72 578.52-55.48 550.72-52.41 533.5-33.32 516.8-14.8 519.09 12.5 520.23 37.41 521.3 60.75 524.84 83.92 539.68 101.96 556.12 121.94 578.41 141.04 604.23 139.48" fill="#ff9500" stroke="none"></path><path d="M620.23 121.48C645.37 119.96 661.1 95.79 677.42 76.6 691.88 59.6 704.5 41.58 707.05 19.41 709.96-5.91 709.67-34.01 692.29-52.65 674.55-71.68 646.25-73.96 620.23-73.72 594.52-73.48 566.72-70.41 549.5-51.32 532.8-32.8 535.09-5.5 536.23 19.41 537.3 42.75 540.84 65.92 555.68 83.96 572.12 103.94 594.41 123.04 620.23 121.48" fill="none" stroke-width="4" stroke="#b36800"></path><path d="M1195.09 211.26C1214.62 211.2 1234.21 207.91 1249.17 195.35 1265.49 181.65 1277.38 162.55 1278.44 141.27 1279.55 119.04 1271.83 95.9 1254.85 81.51 1238.79 67.9 1216.13 70.1 1195.09 70.66 1174.89 71.2 1153.2 70.82 1138.45 84.63 1123.35 98.76 1119.24 120.59 1119.65 141.27 1120.05 161.48 1125.86 181.93 1140.68 195.68 1155.06 209.02 1175.48 211.32 1195.09 211.26" fill="#ff9500" stroke="none"></path><path d="M1215.09 193.26C1234.62 193.2 1254.21 189.91 1269.17 177.35 1285.49 163.65 1297.38 144.55 1298.44 123.27 1299.55 101.04 1291.83 77.9 1274.85 63.51 1258.79 49.9 1236.13 52.1 1215.09 52.66 1194.89 53.2 1173.2 52.82 1158.45 66.63 1143.35 80.76 1139.24 102.59 1139.65 123.27 1140.05 143.48 1145.86 163.93 1160.68 177.68 1175.06 191.02 1195.48 193.32 1215.09 193.26" fill="none" stroke-width="4" stroke="#b36800"></path><path d="M316.42 245.84C340.33 245.06 362.7 236.11 380.49 220.12 399.4 203.12 415.28 181.46 416.28 156.05 417.31 129.82 405.93 103.51 385.75 86.72 366.93 71.05 340.91 73.12 316.42 72.95 291.66 72.78 265.34 70.14 246.13 85.76 225.37 102.63 213.81 129.3 214.18 156.05 214.55 182.49 228.18 206.97 248.05 224.42 266.71 240.8 291.6 246.65 316.42 245.84" fill="#fd3f3f" stroke="none"></path><path d="M331.42 227.84C355.33 227.06 377.7 218.11 395.49 202.12 414.4 185.12 430.28 163.46 431.28 138.05 432.31 111.82 420.93 85.51 400.75 68.72 381.93 53.05 355.91 55.12 331.42 54.95 306.66 54.78 280.34 52.14 261.13 67.76 240.37 84.63 228.81 111.3 229.18 138.05 229.55 164.49 243.18 188.97 263.05 206.42 281.71 222.8 306.6 228.65 331.42 227.84" fill="none" stroke-width="4" stroke="#db0202"></path></g><defs><clipPath id="SvgjsClipPath3603"><rect width="1439" height="560" x="0" y="0"></rect></clipPath><linearGradient x1="50%" y1="100%" x2="50%" y2="0%" gradientUnits="userSpaceOnUse" id="SvgjsLinearGradient3604"><stop stop-color="rgba(159, 205, 254, 1)" offset="0.28"></stop><stop stop-color="rgba(255, 255, 255, 1)" offset="1"></stop></linearGradient></defs></svg>